<?xml version="1.0" encoding="utf-8"?>
<!-- Generator: Adobe Illustrator 27.5.0, SVG Export Plug-In . SVG Version: 6.00 Build 0)  -->
<svg version="1.1" xmlns="http://www.w3.org/2000/svg" xmlns:xlink="http://www.w3.org/1999/xlink" x="0px" y="0px"
	 viewBox="0 0 500 500" style="enable-background:new 0 0 500 500;" xml:space="preserve">
<g id="BACKGROUND">
	<rect style="fill:#D5EDFF;" width="500" height="500"/>
</g>
<g id="OBJECTS">
	<g>
		<path style="fill:#C4DAEB;" d="M448.495,462.692c0,16.608-88.869,26.072-198.495,26.072S51.505,479.3,51.505,462.692
			S140.374,432.62,250,432.62S448.495,446.083,448.495,462.692z"/>
		<g>
			<g>
				<path style="fill:#546573;" d="M249.027,412.734h-7.908c-1.635,0-2.973-1.338-2.973-2.973v-41.434
					c0-1.635,1.338-2.973,2.973-2.973h7.908c1.635,0,2.973,1.338,2.973,2.973v41.434C252,411.396,250.662,412.734,249.027,412.734z"
					/>
				<path style="fill:#667C8C;" d="M201.623,351.36c7.188,16.891,23.935,21.362,43.45,21.362c19.515,0,36.262-4.471,43.45-21.362
					H201.623z"/>
				<path style="fill:#91B0C7;" d="M283.591,350.106h-77.037c-7.625,0-14.041-6.68-14.62-15.262l-10.728-146.826
					c-0.699-10.365,6.105-19.14,14.893-19.14h97.947c8.788,0,15.592,8.776,14.893,19.14l-10.728,146.826
					C297.632,343.426,291.217,350.106,283.591,350.106z"/>
				<path style="fill:#667C8C;" d="M296.009,353.692H194.137c-5.079,0-9.234-4.155-9.234-9.234l0,0c0-5.079,4.155-9.234,9.234-9.234
					h101.872c5.079,0,9.234,4.155,9.234,9.234l0,0C305.243,349.536,301.088,353.692,296.009,353.692z"/>
				<path style="fill:#7C97AB;" d="M303.385,346.698H186.761c-3.967,0-7.212-3.246-7.212-7.212l0,0c0-3.967,3.245-7.212,7.212-7.212
					h116.624c3.967,0,7.212,3.245,7.212,7.212l0,0C310.597,343.452,307.351,346.698,303.385,346.698z"/>
				<path style="fill:#A2C4DE;" d="M295.255,208.609H194.891c-9.617,0-17.485-7.868-17.485-17.485v-8.207
					c0-9.617,7.868-17.485,17.485-17.485h100.365c9.617,0,17.485,7.868,17.485,17.485v8.207
					C312.74,200.741,304.872,208.609,295.255,208.609z"/>
				<g>
					<path style="fill:#667C8C;" d="M200.669,448.019c-0.205,0-0.413-0.019-0.623-0.057c-1.901-0.342-3.165-2.16-2.823-4.061
						c3.824-21.254,23.948-36.681,47.85-36.681c23.901,0,44.024,15.426,47.849,36.68c0.343,1.9-0.921,3.719-2.822,4.061
						c-1.903,0.344-3.72-0.922-4.06-2.822c-3.225-17.919-20.453-30.924-40.966-30.924c-20.514,0-37.742,13.006-40.966,30.925
						C203.803,446.831,202.33,448.019,200.669,448.019z"/>
				</g>
				<g>
					<path style="fill:#667C8C;" d="M234.797,448.018c-0.049,0-0.098-0.001-0.148-0.003c-1.93-0.08-3.429-1.71-3.349-3.64
						c0.363-8.716,2.429-37.154,13.772-37.154c11.344,0,13.41,28.438,13.773,37.153c0.08,1.93-1.419,3.56-3.349,3.64
						c-1.907,0.078-3.56-1.418-3.64-3.349c-0.78-18.744-4.734-28.86-6.785-30.356c-2.051,1.496-6.004,11.613-6.784,30.357
						C238.21,446.546,236.661,448.018,234.797,448.018z"/>
				</g>
				<g>
					<path style="fill:#546573;" d="M237.546,436.818h-6.683c-1.523,0-2.882,3.449-3.033,7.703c-0.152,4.254,0.96,7.703,2.484,7.703
						h6.683c1.524,0,2.882-3.449,3.033-7.703C240.182,440.267,239.07,436.818,237.546,436.818z"/>
					<path style="fill:#42505C;" d="M240.03,444.521c-0.152,4.254-1.51,7.703-3.033,7.703c-1.524,0-2.636-3.449-2.484-7.703
						c0.152-4.254,1.51-7.703,3.033-7.703C239.07,436.818,240.182,440.267,240.03,444.521z"/>
				</g>
				<g>
					<path style="fill:#546573;" d="M204.705,436.818h-6.683c-1.524,0-2.882,3.449-3.033,7.703c-0.152,4.254,0.96,7.703,2.484,7.703
						h6.683c1.524,0,2.882-3.449,3.033-7.703C207.341,440.267,206.228,436.818,204.705,436.818z"/>
					<path style="fill:#42505C;" d="M207.189,444.521c-0.152,4.254-1.51,7.703-3.033,7.703c-1.524,0-2.636-3.449-2.484-7.703
						c0.152-4.254,1.51-7.703,3.033-7.703C206.228,436.818,207.341,440.267,207.189,444.521z"/>
				</g>
				<g>
					<path style="fill:#546573;" d="M286.056,436.818h6.683c1.524,0,2.882,3.449,3.033,7.703c0.152,4.254-0.96,7.703-2.484,7.703
						h-6.683c-1.524,0-2.882-3.449-3.033-7.703C283.42,440.267,284.532,436.818,286.056,436.818z"/>
					<path style="fill:#42505C;" d="M283.572,444.521c0.152,4.254,1.51,7.703,3.033,7.703s2.636-3.449,2.484-7.703
						c-0.152-4.254-1.51-7.703-3.033-7.703S283.42,440.267,283.572,444.521z"/>
				</g>
				<g>
					<path style="fill:#546573;" d="M252.458,436.818h6.683c1.524,0,2.882,3.449,3.033,7.703c0.152,4.254-0.96,7.703-2.484,7.703
						h-6.683c-1.524,0-2.882-3.449-3.033-7.703C249.822,440.267,250.934,436.818,252.458,436.818z"/>
					<path style="fill:#42505C;" d="M249.974,444.521c0.152,4.254,1.51,7.703,3.033,7.703c1.524,0,2.636-3.449,2.484-7.703
						c-0.152-4.254-1.51-7.703-3.033-7.703C250.934,436.818,249.822,440.267,249.974,444.521z"/>
				</g>
			</g>
			<g>
				<g>
					<path style="fill:#FFCBAD;" d="M172.334,231.749c-4.056,0-7.812-2.618-9.073-6.695l-17.088-55.234
						c-1.551-5.012,1.255-10.332,6.268-11.883c5.013-1.55,10.333,1.256,11.883,6.268l14.283,46.167l40.669-12.538
						c5.016-1.547,10.331,1.266,11.877,6.279c1.546,5.014-1.266,10.331-6.279,11.877l-49.738,15.334
						C174.204,231.612,173.261,231.749,172.334,231.749z"/>
				</g>
				<g>
					<path style="fill:#FFCBAD;" d="M352.436,282.103c-0.183,0-0.364-0.005-0.549-0.016l-44.901-2.557
						c-3.029-0.172-5.794-1.781-7.44-4.33l-38.6-59.76c-2.847-4.407-1.581-10.288,2.826-13.134
						c4.407-2.848,10.287-1.582,13.135,2.826l35.979,55.704l40.081,2.282c5.238,0.298,9.243,4.786,8.944,10.024
						C361.625,278.196,357.435,282.103,352.436,282.103z"/>
				</g>
				<path style="fill:#BD77AC;" d="M260.701,331.274h-31.255c-9.852,0-17.914-8.061-17.914-17.914v-99.616
					c0-9.852,8.061-17.914,17.914-17.914h31.255c9.853,0,17.914,8.061,17.914,17.914v99.616
					C278.614,323.212,270.553,331.274,260.701,331.274z"/>
				<path style="fill:#A66897;" d="M234.276,195.83c0,0-15.991-1.614-36.266,7.356c0,0-6.282,11.277-1.428,27.4
					c0,0,6.483,7.089,14.949,3.091C211.532,233.677,219.736,206.918,234.276,195.83z"/>
				<path style="fill:#E3B59A;" d="M245.073,202.66L245.073,202.66c-6.264,0-11.389-2.125-11.389-8.389v-9.237
					c0-5.809,4.753-10.562,10.562-10.562h1.653c5.809,0,10.563,4.753,10.563,10.562v9.237
					C256.462,200.535,251.337,202.66,245.073,202.66z"/>
				<path style="fill:#0061A1;" d="M194.163,332.274c0,0,2.824-15.346,17.369-20.766c0,0,30.187,5.646,67.083,0
					c0,0,14.296,6.478,17.578,16.225l-34.17,11.753c0,0-6.134-6.427-15.845-6.652c-9.711-0.226-13.807-0.911-16.841,3.109
					L194.163,332.274z"/>
				<g>
					<path style="fill:#C4A497;" d="M231.784,435.474c0,0,5.748,3.002,6.976,12.407c1.228,9.405-7.577,9.605-18.783,9.806
						c-11.206,0.2-15.409-4.986-12.608-12.173c3.002-7.703,11.207-10.039,11.207-10.039H231.784z"/>
					<path style="fill:#0072BC;" d="M224.571,440.327L224.571,440.327c-4.542,0.556-9.643-0.102-12.859-0.681
						c-1.913-0.344-3.392-1.869-3.66-3.794l-13.626-97.84c-1.654-10.209,4.956-20.977,14.917-22.196h0
						c9.962-1.218,18.972,7.64,19.827,17.946l7.578,99.123c0.135,1.772-0.781,3.455-2.348,4.291
						C232.213,438.342,228.761,439.815,224.571,440.327z"/>
					<path style="fill:#C4A497;" d="M259.845,435.474c0,0-5.748,3.002-6.976,12.407c-1.228,9.405,7.577,9.605,18.783,9.806
						c11.206,0.2,15.409-4.986,12.608-12.173c-3.002-7.703-11.207-10.039-11.207-10.039H259.845z"/>
					<path style="fill:#0072BC;" d="M267.059,440.327L267.059,440.327c4.542,0.556,9.643-0.102,12.859-0.681
						c1.913-0.344,3.392-1.869,3.66-3.794l13.627-97.84c1.654-10.209-4.956-20.977-14.918-22.196l0,0
						c-9.962-1.218-18.972,7.64-19.827,17.946l-7.578,99.123c-0.135,1.772,0.781,3.455,2.348,4.291
						C259.416,438.342,262.868,439.815,267.059,440.327z"/>
				</g>
				<g>
					<path style="fill:#FFCBAD;" d="M159.544,163.465L159.544,163.465c-1.568-1.19-1.877-3.445-0.687-5.013l6.605-8.705
						c1.19-1.568,3.446-1.877,5.013-0.687l0,0c1.568,1.19,1.877,3.445,0.687,5.013l-6.605,8.705
						C163.368,164.346,161.112,164.655,159.544,163.465z"/>
					<path style="fill:#FFCBAD;" d="M156.967,157.027L156.967,157.027c-1.249,1.139-3.202,1.048-4.34-0.2l-12.776-14.01
						c-1.139-1.249-1.049-3.202,0.2-4.34l0,0c1.249-1.139,3.202-1.049,4.34,0.2l12.776,14.01
						C158.305,153.936,158.215,155.889,156.967,157.027z"/>
					<path style="fill:#FFCBAD;" d="M149.203,162.167L149.203,162.167c-0.781,1.498-2.646,2.085-4.144,1.304l-16.814-8.764
						c-1.498-0.781-2.085-2.646-1.304-4.144l0,0c0.781-1.498,2.646-2.085,4.144-1.304l16.814,8.764
						C149.397,158.804,149.984,160.669,149.203,162.167z"/>
					<path style="fill:#FFCBAD;" d="M152.392,167.417L152.392,167.417c-0.454,1.628-2.158,2.587-3.785,2.133l-18.262-5.098
						c-1.628-0.454-2.587-2.158-2.133-3.785l0,0c0.454-1.628,2.158-2.587,3.785-2.133l18.262,5.098
						C151.886,164.086,152.846,165.79,152.392,167.417z"/>
					<path style="fill:#FFCBAD;" d="M152.912,159.658L152.912,159.658c-1.096,1.286-3.045,1.442-4.331,0.346l-16.806-14.318
						c-1.286-1.096-1.442-3.045-0.346-4.331l0,0c1.096-1.286,3.045-1.442,4.331-0.346l16.806,14.318
						C153.852,156.423,154.008,158.372,152.912,159.658z"/>
					<path style="fill:#FFCBAD;" d="M153.477,171.663L153.477,171.663c-6.272,0-11.404-5.132-11.404-11.404v0
						c0-6.272,5.132-11.404,11.404-11.404l0,0c6.272,0,11.404,5.132,11.404,11.404v0
						C164.881,166.531,159.749,171.663,153.477,171.663z"/>
				</g>
				<path style="fill:#A66897;" d="M257.121,195.83c0,0,29.884-2.461,39.072,31.919c0,0,0.336,12.677-13.657,24.956l-4.089-9.664
					C278.447,243.041,269.267,206.918,257.121,195.83z"/>
				<g>
					<path style="fill:#E3B59A;" d="M219.076,166.542L219.076,166.542c-3.205,0-5.827-2.622-5.827-5.827v-5.069
						c0-3.205,2.622-5.827,5.827-5.827l0,0c3.205,0,5.827,2.622,5.827,5.827v5.069C224.903,163.919,222.281,166.542,219.076,166.542
						z"/>
					<path style="fill:#B8927C;" d="M219.076,163.366L219.076,163.366c-1.65,0-3-1.35-3-3v-4.373c0-1.65,1.35-3,3-3l0,0
						c1.65,0,3,1.35,3,3v4.373C222.076,162.016,220.726,163.366,219.076,163.366z"/>
					<path style="fill:#FFCBAD;" d="M245.073,190.101L245.073,190.101c-14.299,0-25.997-11.699-25.997-25.997v-14.541
						c0-14.299,11.699-25.997,25.997-25.997h0c14.298,0,25.997,11.699,25.997,25.997v14.541
						C271.07,178.402,259.372,190.101,245.073,190.101z"/>
					<path style="fill:none;stroke:#63524B;stroke-linecap:round;stroke-linejoin:round;stroke-miterlimit:10;" d="M228.642,154.807
						v-3.654c0-1.687,1.503-3.068,3.339-3.068l0,0c1.836,0,3.339,1.38,3.339,3.068v3.654"/>
					<path style="fill:none;stroke:#63524B;stroke-linecap:round;stroke-linejoin:round;stroke-miterlimit:10;" d="M254.826,154.807
						v-3.654c0-1.687,1.503-3.068,3.339-3.068l0,0c1.836,0,3.339,1.38,3.339,3.068v3.654"/>
					<path style="fill:#BA5050;" d="M254.087,167.519c0.882,0,1.597,0.861,1.461,1.828c-0.792,5.626-5.18,9.931-10.475,9.931
						c-5.295,0-9.683-4.305-10.475-9.931c-0.136-0.966,0.579-1.828,1.461-1.828H254.087z"/>
					<path style="fill:#E36262;" d="M245.073,172.573c-2.883,0-5.491,1.282-7.402,3.353c1.911,2.07,4.519,3.353,7.402,3.353
						c2.883,0,5.491-1.283,7.402-3.353C250.564,173.855,247.956,172.573,245.073,172.573z"/>
					<path style="fill:#FFFFFF;" d="M254.087,167.519h-18.028c-0.882,0-1.597,0.861-1.461,1.828
						c0.058,0.413,0.141,0.817,0.237,1.214c0.017,0,0.034,0.003,0.052,0.003h20.372c0.017,0,0.034-0.003,0.052-0.003
						c0.096-0.398,0.179-0.801,0.237-1.214C255.684,168.38,254.969,167.519,254.087,167.519z"/>
					<path style="fill:#E3B59A;" d="M245.073,162.249L245.073,162.249c-2.005,0-3.645-1.64-3.645-3.645v2.362
						c0,2.005,1.64,3.645,3.645,3.645h0c2.005,0,3.645-1.64,3.645-3.645v-2.362C248.718,160.609,247.078,162.249,245.073,162.249z"
						/>
					<g>
						<path style="fill:#004F82;" d="M276.065,150.452l-1.988-0.209c0.016-0.156,1.522-15.698-7.293-25.48
							c-4.8-5.327-11.81-8.027-20.833-8.027c-10.029,0-17.425,2.735-21.981,8.131c-6.766,8.011-4.948,19.273-4.929,19.386
							l-1.972,0.335c-0.085-0.498-1.986-12.298,5.372-21.011c4.954-5.866,12.864-8.84,23.51-8.84c9.621,0,17.132,2.927,22.329,8.698
							C277.689,133.888,276.137,149.78,276.065,150.452z"/>
					</g>
					<path style="fill:#8C6455;" d="M219.076,163.366c0,0,5.298-3.387,4.345-18.629c0,0,23.074,3.705,39.163-4.128
						c0,0,2.84,23.182,9.209,24.002c0,0,2.964-12.465,0-26.225c-2.964-13.76-15.03-19.158-27.732-19.264
						c-12.701-0.106-19.696,13.541-36.318,4.442c0,0-5.491,15.034,6.767,21.067C214.509,144.632,215.154,157.756,219.076,163.366z"
						/>
					<path style="fill:#0072BC;" d="M274.194,167.918L274.194,167.918c-2.431,0-4.421-1.989-4.421-4.421v-10.634
						c0-2.431,1.989-4.421,4.421-4.421l0,0c2.431,0,4.421,1.989,4.421,4.421v10.634
						C278.614,165.928,276.625,167.918,274.194,167.918z"/>
					<g>
						<path style="fill:#004F82;" d="M246.495,186.594c-0.529,0-0.971-0.416-0.998-0.951c-0.027-0.552,0.398-1.021,0.95-1.048
							c26.572-1.313,26.748-19.79,26.747-19.976c-0.004-0.552,0.44-1.003,0.993-1.007c0.542-0.002,1.003,0.441,1.007,0.993
							c0.001,0.206-0.183,20.581-28.648,21.988C246.528,186.593,246.511,186.594,246.495,186.594z"/>
					</g>
					<circle style="fill:#0072BC;" cx="245.966" cy="185.594" r="2.752"/>
				</g>
				<g>
					<path style="fill:#FFCBAD;" d="M361.276,267.522L361.276,267.522c-0.032,1.689,1.325,3.098,3.014,3.129l18.957,0.356
						c1.689,0.032,3.098-1.325,3.129-3.014l0,0c0.032-1.689-1.325-3.098-3.014-3.129l-18.957-0.356
						C362.716,264.476,361.308,265.832,361.276,267.522z"/>
					<path style="fill:#FFCBAD;" d="M362.537,276.747L362.537,276.747c-0.611,1.576,0.179,3.364,1.754,3.975l17.679,6.852
						c1.576,0.611,3.364-0.179,3.975-1.754l0,0c0.611-1.576-0.179-3.364-1.754-3.975l-17.679-6.852
						C364.936,274.382,363.147,275.172,362.537,276.747z"/>
					<path style="fill:#FFCBAD;" d="M356.488,277.815L356.488,277.815c-0.923,1.415-0.521,3.328,0.895,4.252l15.88,10.359
						c1.415,0.923,3.328,0.521,4.252-0.895v0c0.923-1.415,0.521-3.328-0.895-4.252l-15.88-10.359
						C359.324,275.997,357.411,276.4,356.488,277.815z"/>
					<path style="fill:#FFCBAD;" d="M361.975,272.304L361.975,272.304c-0.243,1.672,0.925,3.239,2.597,3.483l21.848,3.182
						c1.672,0.243,3.239-0.925,3.483-2.597l0,0c0.243-1.672-0.925-3.239-2.597-3.483l-21.848-3.181
						C363.786,269.464,362.218,270.632,361.975,272.304z"/>
					<path style="fill:#FFCBAD;" d="M352.581,279.801L352.581,279.801c4.139,4.713,11.381,5.184,16.094,1.045l0,0
						c4.713-4.139,5.184-11.381,1.045-16.094l0,0c-4.139-4.713-11.381-5.184-16.094-1.045l0,0
						C348.913,267.846,348.443,275.088,352.581,279.801z"/>
				</g>
			</g>
			<g>
				<path style="fill:#D4B9B0;" d="M428.135,303.617H71.865c-5.532,0-10.058-4.526-10.058-10.058l0,0
					c0-5.532,4.526-10.058,10.058-10.058h356.271c5.532,0,10.058,4.526,10.058,10.058l0,0
					C438.193,299.091,433.667,303.617,428.135,303.617z"/>
				<path style="fill:#0072BC;" d="M440.235,293.559H59.765c-4.409,0-8.017-3.608-8.017-8.017l0,0c0-4.409,3.608-8.017,8.017-8.017
					h380.47c4.409,0,8.017,3.608,8.017,8.017l0,0C448.252,289.951,444.644,293.559,440.235,293.559z"/>
				<path style="fill:#C4A497;" d="M93.929,449.52h-1.694c-2.309,0-4.17-1.891-4.133-4.2l2.705-141.704h26.491L98.037,445.851
					C97.8,447.941,96.032,449.52,93.929,449.52z"/>
				<path style="fill:#D4B9B0;" d="M62.793,470.497h-1.634c-2.428,0-4.332-2.082-4.118-4.5l15.053-162.381h26.491L66.857,467.12
					C66.493,469.078,64.784,470.497,62.793,470.497z"/>
				<path style="fill:#C4A497;" d="M405.575,449.52h1.694c2.309,0,4.17-1.891,4.133-4.2l-2.705-141.704h-26.491l19.261,142.234
					C401.704,447.941,403.472,449.52,405.575,449.52z"/>
				<path style="fill:#D4B9B0;" d="M436.711,470.497h1.634c2.427,0,4.332-2.082,4.118-4.5l-15.054-162.381h-26.491l31.729,163.503
					C433.012,469.078,434.72,470.497,436.711,470.497z"/>
			</g>
			<g>
				<path style="fill:#91B0C7;" d="M419.131,198.038h-66.44c-2.966,0-5.82,2.287-6.373,5.109l-9.357,47.717
					c-0.553,2.822,1.403,5.109,4.369,5.109h66.44c2.966,0,5.82-2.287,6.373-5.109l9.357-47.717
					C424.053,200.325,422.097,198.038,419.131,198.038z"/>
				<path style="fill:#A2C4DE;" d="M423.083,198.038h-66.44c-2.966,0-5.82,2.287-6.373,5.109l-9.357,47.717
					c-0.553,2.822,1.403,5.109,4.369,5.109h66.44c2.966,0,5.82-2.287,6.373-5.109l9.357-47.717
					C428.005,200.325,426.049,198.038,423.083,198.038z"/>
				
					<ellipse transform="matrix(0.7385 -0.6742 0.6742 0.7385 -52.7468 318.0033)" style="fill:#84A0B5;" cx="383.612" cy="227.005" rx="17.703" ry="14.755"/>
				<path style="fill:#91B0C7;" d="M379.088,276.84L379.088,276.84c-3.397-0.43-5.824-3.561-5.394-6.958l4.909-38.765
					c0.43-3.397,3.561-5.824,6.958-5.394h0c3.397,0.43,5.824,3.561,5.394,6.958l-4.909,38.765
					C385.617,274.842,382.485,277.27,379.088,276.84z"/>
				<path style="fill:#A2C4DE;" d="M411.36,270.046h-70.249c-2.057,0-3.74,1.683-3.74,3.74l0,0c0,2.057,1.683,3.74,3.74,3.74h70.249
					c2.057,0,3.74-1.683,3.74-3.74l0,0C415.1,271.728,413.417,270.046,411.36,270.046z"/>
			</g>
			<g>
				<g>
					<path style="fill:#00BAA1;" d="M118.389,226.309c0,0,6.775-29.9-14.39-46.508c0,0,8.141,16.929,0.47,46.772L118.389,226.309z"
						/>
					<path style="fill:#00A38D;" d="M109.232,226.482c0,0,9.075-29.304-5.233-46.682c0,0,8.141,16.929,0.47,46.772L109.232,226.482z
						"/>
				</g>
				<g>
					<path style="fill:#00A38D;" d="M114.856,235.498c-1.228-9.015-6.226-30.833-26.205-39.668c0,0,9.912,11.931,12.275,37.419
						C105.706,233.572,110.338,234.335,114.856,235.498z"/>
					<path style="fill:#008C79;" d="M105.853,233.744c-0.93-10.573-4.428-28.489-17.201-37.914c0,0,9.912,11.931,12.275,37.419
						C102.587,233.362,104.228,233.527,105.853,233.744z"/>
				</g>
				<g>
					<path style="fill:#00D1B5;" d="M122.473,242.586c0,0,1.525-30.62-22.185-43.335c0,0,10.935,15.274,8.518,45.992
						L122.473,242.586z"/>
					<path style="fill:#00B39B;" d="M113.482,244.334c0,0,3.893-30.429-13.194-45.083c0,0,10.935,15.274,8.518,45.992
						L113.482,244.334z"/>
				</g>
				<g>
					<path style="fill:#00D1B5;" d="M117.777,227.447c0,0-5.972-26.996,13.192-41.876c0,0-7.42,15.23-0.64,42.178L117.777,227.447z"
						/>
					<path style="fill:#00B39B;" d="M126.034,227.645c0,0-8.049-26.469,4.935-42.075c0,0-7.42,15.23-0.64,42.178L126.034,227.645z"
						/>
				</g>
				<g>
					<path style="fill:#00BAA1;" d="M115.101,247.308c0,0-1.722-39.889,29.265-56.242c0,0-14.372,19.797-11.489,59.82
						L115.101,247.308z"/>
					<path style="fill:#00A38D;" d="M126.794,249.662c0,0-4.807-39.66,17.572-58.596c0,0-14.372,19.797-11.489,59.82
						L126.794,249.662z"/>
				</g>
				<g>
					<path style="fill:#00A38D;" d="M115.084,243.865c0,0-8.672-29.406-35.25-33.579c0,0,15.365,10.807,23.227,40.6L115.084,243.865
						z"/>
					<path style="fill:#00A38D;" d="M107.175,248.484c0,0-6.373-30.008-27.341-38.198c0,0,15.365,10.807,23.227,40.6
						L107.175,248.484z"/>
				</g>
				<g>
					<path style="fill:#00D1B5;" d="M117.121,240.741c0,0,13.427-24.17,37.64-22.604c0,0-15.652,6.482-28.443,31.152
						L117.121,240.741z"/>
					<path style="fill:#00B39B;" d="M123.171,246.364c0,0,11.523-25.152,31.59-28.227c0,0-15.652,6.482-28.443,31.152
						L123.171,246.364z"/>
				</g>
				<path style="fill:#C4A497;" d="M132.732,239.391h-32.584c-1.608,0-2.856,1.402-2.671,2.999l3.793,32.756
					c0.157,1.356,1.306,2.38,2.671,2.38h24.997c1.366,0,2.514-1.023,2.671-2.38l3.793-32.756
					C135.589,240.792,134.34,239.391,132.732,239.391z"/>
				<path style="fill:#AB8F83;" d="M99.236,257.579c4.743-3.371,10.712-5.386,17.204-5.386c6.492,0,12.462,2.015,17.204,5.386
					l1.759-15.19c0.185-1.597-1.063-2.999-2.671-2.999h-32.584c-1.608,0-2.856,1.402-2.671,2.999L99.236,257.579z"/>
				<path style="fill:#C4A497;" d="M135.97,249.289h-39.06c-0.861,0-1.602-0.669-1.765-1.595l-1.51-8.558
					c-0.214-1.215,0.635-2.342,1.765-2.342h42.079c1.13,0,1.979,1.128,1.765,2.342l-1.51,8.558
					C137.572,248.62,136.832,249.289,135.97,249.289z"/>
			</g>
		</g>
	</g>
	<g>
		<g>
			<path style="fill:#B7CCDB;" d="M76.815,86.021c0,0-13.346,19.714-32.669,17.526c0,0,13.434-4.58,17.115-29.876L76.815,86.021z"/>
			<path style="fill:#9AABB8;" d="M61.261,73.671l15.554,12.35c0,0-3.424,5.05-9.306,9.755c-3.926-1.474-7.548-3.579-10.743-6.192
				C58.655,85.507,60.295,80.308,61.261,73.671z"/>
			<path style="fill:#B7CCDB;" d="M82.523,93.08h19.971c18.135,0,32.973-14.838,32.973-32.973l0,0
				c0-18.135-14.838-32.973-32.973-32.973H82.523c-18.135,0-32.973,14.838-32.973,32.973l0,0
				C49.55,78.242,64.388,93.08,82.523,93.08z"/>
			<path style="fill:#D5EDFF;" d="M120.198,63.309h-55.38c-1.761,0-3.202-1.441-3.202-3.202l0,0c0-1.761,1.441-3.202,3.202-3.202
				h55.38c1.761,0,3.202,1.441,3.202,3.202l0,0C123.4,61.868,121.959,63.309,120.198,63.309z"/>
			<path style="fill:#D5EDFF;" d="M112.874,48.915h-40.73c-1.761,0-3.202-1.441-3.202-3.202l0,0c0-1.761,1.441-3.202,3.202-3.202
				h40.73c1.761,0,3.202,1.441,3.202,3.202l0,0C116.075,47.474,114.635,48.915,112.874,48.915z"/>
			<path style="fill:#D5EDFF;" d="M112.874,77.703h-40.73c-1.761,0-3.202-1.441-3.202-3.202l0,0c0-1.761,1.441-3.202,3.202-3.202
				h40.73c1.761,0,3.202,1.441,3.202,3.202l0,0C116.075,76.262,114.635,77.703,112.874,77.703z"/>
			<path style="fill:#9AABB8;" d="M134.372,68.505H132.5c-14.859,0-27.362,10.579-30.363,24.575h0.357
				C117.729,93.08,130.633,82.606,134.372,68.505z"/>
		</g>
		<g>
			<path style="fill:#B7CCDB;" d="M154.263,119.966c0,0,10.511,15.526,25.73,13.803c0,0-10.581-3.607-13.48-23.53L154.263,119.966z"
				/>
			<path style="fill:#9AABB8;" d="M166.513,110.239l-12.25,9.727c0,0,2.696,3.977,7.33,7.682c3.092-1.161,5.945-2.819,8.461-4.876
				C168.566,119.562,167.274,115.467,166.513,110.239z"/>
			<path style="fill:#B7CCDB;" d="M149.768,125.526h-15.729c-14.283,0-25.969-11.686-25.969-25.969v0
				c0-14.283,11.686-25.969,25.969-25.969h15.729c14.283,0,25.969,11.686,25.969,25.969v0
				C175.737,113.84,164.051,125.526,149.768,125.526z"/>
			<path style="fill:#D5EDFF;" d="M162.803,101.974h-41.798c-1.329,0-2.417-1.087-2.417-2.417l0,0c0-1.329,1.087-2.417,2.417-2.417
				h41.798c1.329,0,2.417,1.087,2.417,2.417l0,0C165.219,100.886,164.132,101.974,162.803,101.974z"/>
			<path style="fill:#D5EDFF;" d="M157.274,91.11h-30.742c-1.329,0-2.416-1.087-2.416-2.417l0,0c0-1.329,1.087-2.417,2.416-2.417
				h30.742c1.329,0,2.417,1.087,2.417,2.417l0,0C159.691,90.022,158.604,91.11,157.274,91.11z"/>
			<path style="fill:#D5EDFF;" d="M157.274,112.838h-30.742c-1.329,0-2.416-1.088-2.416-2.417l0,0c0-1.329,1.087-2.416,2.416-2.416
				h30.742c1.329,0,2.417,1.087,2.417,2.416l0,0C159.691,111.75,158.604,112.838,157.274,112.838z"/>
		</g>
	</g>
	<g>
		<g>
			<g>
				<path style="fill:#B7CCDB;" d="M61.806,180.862c-0.464,0-0.844,0.38-0.844,0.844v13.281c0,0.464,0.38,0.844,0.844,0.844
					s0.844-0.38,0.844-0.844v-13.281C62.65,181.241,62.271,180.862,61.806,180.862z"/>
				<path style="fill:#B7CCDB;" d="M61.806,152.717c-0.464,0-0.844,0.38-0.844,0.844v13.281c0,0.464,0.38,0.844,0.844,0.844
					s0.844-0.38,0.844-0.844v-13.281C62.65,153.097,62.271,152.717,61.806,152.717z"/>
			</g>
			<g>
				<path style="fill:#B7CCDB;" d="M55.219,174.274c0-0.464-0.38-0.844-0.844-0.844H41.094c-0.464,0-0.844,0.38-0.844,0.844
					c0,0.464,0.38,0.844,0.844,0.844h13.281C54.839,175.118,55.219,174.738,55.219,174.274z"/>
				<path style="fill:#B7CCDB;" d="M83.363,174.274c0-0.464-0.38-0.844-0.844-0.844H69.238c-0.464,0-0.844,0.38-0.844,0.844
					c0,0.464,0.38,0.844,0.844,0.844h13.281C82.983,175.118,83.363,174.738,83.363,174.274z"/>
			</g>
			<g>
				<path style="fill:#B7CCDB;" d="M57.148,178.932c-0.328-0.328-0.865-0.328-1.193,0l-9.391,9.391
					c-0.328,0.328-0.328,0.865,0,1.193c0.328,0.328,0.865,0.328,1.193,0l9.391-9.391C57.476,179.797,57.476,179.26,57.148,178.932z"
					/>
				<path style="fill:#B7CCDB;" d="M77.049,159.031c-0.328-0.328-0.865-0.328-1.193,0l-9.391,9.391
					c-0.328,0.328-0.328,0.865,0,1.193c0.328,0.328,0.865,0.328,1.193,0l9.391-9.391C77.377,159.896,77.377,159.359,77.049,159.031z
					"/>
			</g>
			<g>
				<path style="fill:#B7CCDB;" d="M57.148,169.615c0.328-0.328,0.328-0.865,0-1.193l-9.391-9.391c-0.328-0.328-0.865-0.328-1.193,0
					c-0.328,0.328-0.328,0.865,0,1.193l9.391,9.391C56.283,169.944,56.82,169.944,57.148,169.615z"/>
				<path style="fill:#B7CCDB;" d="M77.049,189.516c0.328-0.328,0.328-0.865,0-1.193l-9.391-9.391c-0.328-0.328-0.865-0.328-1.193,0
					c-0.328,0.328-0.328,0.865,0,1.193l9.391,9.391C76.184,189.845,76.721,189.845,77.049,189.516z"/>
			</g>
		</g>
		<g>
			<g>
				<path style="fill:#B7CCDB;" d="M447.884,183.478c-0.336,0-0.611,0.275-0.611,0.611v9.614c0,0.336,0.275,0.611,0.611,0.611
					s0.611-0.275,0.611-0.611v-9.614C448.495,183.753,448.22,183.478,447.884,183.478z"/>
				<path style="fill:#B7CCDB;" d="M447.884,163.106c-0.336,0-0.611,0.275-0.611,0.611v9.614c0,0.336,0.275,0.611,0.611,0.611
					s0.611-0.275,0.611-0.611v-9.614C448.495,163.38,448.22,163.106,447.884,163.106z"/>
			</g>
			<g>
				<path style="fill:#B7CCDB;" d="M443.116,178.71c0-0.336-0.275-0.611-0.611-0.611h-9.614c-0.336,0-0.611,0.275-0.611,0.611
					c0,0.336,0.275,0.611,0.611,0.611h9.614C442.841,179.32,443.116,179.046,443.116,178.71z"/>
				<path style="fill:#B7CCDB;" d="M463.488,178.71c0-0.336-0.275-0.611-0.611-0.611h-9.614c-0.336,0-0.611,0.275-0.611,0.611
					c0,0.336,0.275,0.611,0.611,0.611h9.614C463.213,179.32,463.488,179.046,463.488,178.71z"/>
			</g>
			<g>
				<path style="fill:#B7CCDB;" d="M444.512,182.082c-0.238-0.238-0.626-0.238-0.864,0l-6.798,6.798
					c-0.237,0.238-0.237,0.626,0,0.864c0.238,0.238,0.626,0.238,0.864,0l6.798-6.798C444.75,182.708,444.75,182.319,444.512,182.082
					z"/>
				<path style="fill:#B7CCDB;" d="M458.918,167.676c-0.237-0.238-0.626-0.238-0.864,0l-6.798,6.798
					c-0.238,0.238-0.238,0.626,0,0.864c0.237,0.238,0.626,0.238,0.864,0l6.798-6.798
					C459.155,168.302,459.155,167.913,458.918,167.676z"/>
			</g>
			<g>
				<path style="fill:#B7CCDB;" d="M444.512,175.338c0.238-0.238,0.238-0.626,0-0.864l-6.798-6.798
					c-0.237-0.238-0.626-0.238-0.864,0c-0.238,0.238-0.238,0.626,0,0.864l6.798,6.798
					C443.886,175.575,444.275,175.575,444.512,175.338z"/>
				<path style="fill:#B7CCDB;" d="M458.918,189.743c0.238-0.237,0.238-0.626,0-0.864l-6.798-6.798
					c-0.238-0.238-0.626-0.238-0.864,0c-0.238,0.238-0.238,0.626,0,0.864l6.798,6.798
					C458.292,189.981,458.68,189.981,458.918,189.743z"/>
			</g>
		</g>
		<g>
			<g>
				<path style="fill:#B7CCDB;" d="M236.671,80.966c-0.452,0-0.822,0.37-0.822,0.822v12.94c0,0.452,0.37,0.822,0.822,0.822
					c0.452,0,0.822-0.37,0.822-0.822v-12.94C237.493,81.336,237.123,80.966,236.671,80.966z"/>
				<path style="fill:#B7CCDB;" d="M236.671,53.543c-0.452,0-0.822,0.37-0.822,0.822v12.941c0,0.452,0.37,0.822,0.822,0.822
					c0.452,0,0.822-0.37,0.822-0.822V54.365C237.493,53.913,237.123,53.543,236.671,53.543z"/>
			</g>
			<g>
				<path style="fill:#B7CCDB;" d="M230.252,74.547c0-0.452-0.37-0.822-0.822-0.822h-12.94c-0.452,0-0.822,0.37-0.822,0.822
					s0.37,0.822,0.822,0.822h12.94C229.882,75.369,230.252,74.999,230.252,74.547z"/>
				<path style="fill:#B7CCDB;" d="M257.675,74.547c0-0.452-0.37-0.822-0.822-0.822h-12.941c-0.452,0-0.822,0.37-0.822,0.822
					s0.37,0.822,0.822,0.822h12.941C257.305,75.369,257.675,74.999,257.675,74.547z"/>
			</g>
			<g>
				<path style="fill:#B7CCDB;" d="M232.132,79.086c-0.32-0.32-0.843-0.32-1.163,0l-9.15,9.15c-0.32,0.32-0.32,0.843,0,1.163
					c0.32,0.32,0.843,0.32,1.163,0l9.15-9.15C232.452,79.929,232.452,79.405,232.132,79.086z"/>
				<path style="fill:#B7CCDB;" d="M251.523,59.695c-0.32-0.32-0.843-0.32-1.163,0l-9.15,9.15c-0.32,0.32-0.32,0.843,0,1.163
					c0.32,0.32,0.843,0.32,1.163,0l9.15-9.15C251.843,60.538,251.843,60.015,251.523,59.695z"/>
			</g>
			<g>
				<path style="fill:#B7CCDB;" d="M232.132,70.008c0.32-0.32,0.32-0.843,0-1.163l-9.15-9.15c-0.32-0.32-0.843-0.32-1.163,0
					c-0.32,0.32-0.32,0.843,0,1.163l9.15,9.15C231.289,70.328,231.812,70.328,232.132,70.008z"/>
				<path style="fill:#B7CCDB;" d="M251.523,89.399c0.32-0.32,0.32-0.843,0-1.163l-9.15-9.15c-0.32-0.32-0.843-0.32-1.163,0
					c-0.32,0.32-0.32,0.843,0,1.163l9.15,9.15C250.68,89.718,251.203,89.718,251.523,89.399z"/>
			</g>
		</g>
		<g>
			<g>
				<path style="fill:#B7CCDB;" d="M336.001,189.798c-0.243,0-0.442,0.199-0.442,0.442v6.959c0,0.243,0.199,0.442,0.442,0.442
					c0.243,0,0.442-0.199,0.442-0.442v-6.959C336.443,189.997,336.244,189.798,336.001,189.798z"/>
				<path style="fill:#B7CCDB;" d="M336.001,175.051c-0.243,0-0.442,0.199-0.442,0.442v6.959c0,0.243,0.199,0.442,0.442,0.442
					c0.243,0,0.442-0.199,0.442-0.442v-6.959C336.443,175.249,336.244,175.051,336.001,175.051z"/>
			</g>
			<g>
				<path style="fill:#B7CCDB;" d="M332.549,186.346c0-0.243-0.199-0.442-0.442-0.442h-6.959c-0.243,0-0.442,0.199-0.442,0.442
					c0,0.243,0.199,0.442,0.442,0.442h6.959C332.35,186.788,332.549,186.589,332.549,186.346z"/>
				<path style="fill:#B7CCDB;" d="M347.296,186.346c0-0.243-0.199-0.442-0.442-0.442h-6.959c-0.243,0-0.442,0.199-0.442,0.442
					c0,0.243,0.199,0.442,0.442,0.442h6.959C347.097,186.788,347.296,186.589,347.296,186.346z"/>
			</g>
			<g>
				<path style="fill:#B7CCDB;" d="M333.56,188.786c-0.172-0.172-0.453-0.172-0.625,0l-4.921,4.921
					c-0.172,0.172-0.172,0.453,0,0.625c0.172,0.172,0.453,0.172,0.625,0l4.921-4.921C333.732,189.24,333.732,188.958,333.56,188.786
					z"/>
				<path style="fill:#B7CCDB;" d="M343.988,178.359c-0.172-0.172-0.453-0.172-0.625,0l-4.921,4.921
					c-0.172,0.172-0.172,0.453,0,0.625c0.172,0.172,0.453,0.172,0.625,0l4.921-4.921C344.16,178.812,344.16,178.531,343.988,178.359
					z"/>
			</g>
			<g>
				<path style="fill:#B7CCDB;" d="M333.56,183.905c0.172-0.172,0.172-0.453,0-0.625l-4.921-4.921c-0.172-0.172-0.453-0.172-0.625,0
					c-0.172,0.172-0.172,0.453,0,0.625l4.921,4.921C333.107,184.077,333.388,184.077,333.56,183.905z"/>
				<path style="fill:#B7CCDB;" d="M343.988,194.333c0.172-0.172,0.172-0.453,0-0.625l-4.921-4.921
					c-0.172-0.172-0.453-0.172-0.625,0c-0.172,0.172-0.172,0.453,0,0.625l4.921,4.921
					C343.534,194.505,343.816,194.505,343.988,194.333z"/>
			</g>
		</g>
		<g>
			<g>
				<path style="fill:#B7CCDB;" d="M153.477,60.197c-0.232,0-0.422,0.19-0.422,0.422v6.635c0,0.232,0.19,0.422,0.422,0.422
					c0.232,0,0.422-0.19,0.422-0.422v-6.635C153.899,60.387,153.709,60.197,153.477,60.197z"/>
				<path style="fill:#B7CCDB;" d="M153.477,46.136c-0.232,0-0.422,0.19-0.422,0.422v6.635c0,0.232,0.19,0.422,0.422,0.422
					c0.232,0,0.422-0.19,0.422-0.422v-6.635C153.899,46.325,153.709,46.136,153.477,46.136z"/>
			</g>
			<g>
				<path style="fill:#B7CCDB;" d="M150.186,56.905c0-0.232-0.19-0.422-0.422-0.422h-6.635c-0.232,0-0.422,0.19-0.422,0.422
					c0,0.232,0.19,0.422,0.422,0.422h6.635C149.996,57.327,150.186,57.137,150.186,56.905z"/>
				<path style="fill:#B7CCDB;" d="M164.247,56.905c0-0.232-0.19-0.422-0.422-0.422h-6.635c-0.232,0-0.422,0.19-0.422,0.422
					c0,0.232,0.19,0.422,0.422,0.422h6.635C164.057,57.327,164.247,57.137,164.247,56.905z"/>
			</g>
			<g>
				<path style="fill:#B7CCDB;" d="M151.15,59.233c-0.164-0.164-0.432-0.164-0.596,0l-4.692,4.692c-0.164,0.164-0.164,0.432,0,0.596
					c0.164,0.164,0.432,0.164,0.596,0l4.692-4.692C151.314,59.665,151.314,59.397,151.15,59.233z"/>
				<path style="fill:#B7CCDB;" d="M161.092,49.29c-0.164-0.164-0.432-0.164-0.596,0l-4.692,4.692c-0.164,0.164-0.164,0.432,0,0.596
					c0.164,0.164,0.432,0.164,0.596,0l4.692-4.692C161.256,49.722,161.256,49.454,161.092,49.29z"/>
			</g>
			<g>
				<path style="fill:#B7CCDB;" d="M151.15,54.578c0.164-0.164,0.164-0.432,0-0.596l-4.692-4.692c-0.164-0.164-0.432-0.164-0.596,0
					c-0.164,0.164-0.164,0.432,0,0.596l4.692,4.692C150.717,54.742,150.986,54.742,151.15,54.578z"/>
				<path style="fill:#B7CCDB;" d="M161.092,64.521c0.164-0.164,0.164-0.432,0-0.596l-4.692-4.692c-0.164-0.164-0.432-0.164-0.596,0
					c-0.164,0.164-0.164,0.432,0,0.596l4.692,4.692C160.66,64.685,160.928,64.685,161.092,64.521z"/>
			</g>
		</g>
		<g>
			<g>
				<path style="fill:#B7CCDB;" d="M281.165,86.903c5.645,0,10.238,4.593,10.238,10.238c0,5.645-4.593,10.238-10.238,10.238
					c-5.645,0-10.238-4.593-10.238-10.238C270.927,91.495,275.52,86.903,281.165,86.903 M281.165,84.903
					c-6.759,0-12.238,5.479-12.238,12.238c0,6.759,5.479,12.238,12.238,12.238c6.759,0,12.238-5.479,12.238-12.238
					C293.403,90.382,287.924,84.903,281.165,84.903L281.165,84.903z"/>
			</g>
		</g>
		<circle style="fill:#B7CCDB;" cx="197.524" cy="97.141" r="8.861"/>
		<g>
			<path style="fill:#B7CCDB;" d="M83.363,112.447c8.382,0,15.201,6.819,15.201,15.201s-6.819,15.201-15.201,15.201
				c-8.382,0-15.201-6.819-15.201-15.201S74.981,112.447,83.363,112.447 M83.363,110.447c-9.5,0-17.201,7.701-17.201,17.201
				c0,9.5,7.701,17.201,17.201,17.201s17.201-7.701,17.201-17.201C100.564,118.148,92.863,110.447,83.363,110.447L83.363,110.447z"
				/>
		</g>
	</g>
	<g>
		<g>
			<polygon style="fill:#FFFFFF;" points="329.771,127.012 300.49,157.419 354.626,153.143 			"/>
			<path style="fill:#B7CCDB;" d="M316.819,140.463c2.932,5.339,6.447,10.308,10.446,14.842l27.361-2.161l-24.855-26.131
				L316.819,140.463z"/>
			
				<ellipse transform="matrix(0.1563 -0.9877 0.9877 0.1563 228.3824 469.3072)" style="fill:#FFFFFF;" cx="388.907" cy="100.967" rx="74.3" ry="74.3"/>
		</g>
		<g>
			<defs>
				
					<ellipse id="SVGID_1_" transform="matrix(0.1563 -0.9877 0.9877 0.1563 228.3824 469.3072)" cx="388.907" cy="100.967" rx="74.3" ry="74.3"/>
			</defs>
			<clipPath id="SVGID_00000088813263081979863710000000464899962589902783_">
				<use xlink:href="#SVGID_1_"  style="overflow:visible;"/>
			</clipPath>
			<g style="clip-path:url(#SVGID_00000088813263081979863710000000464899962589902783_);">
				<g>
					<path style="fill:#004F82;" d="M350.571,124.564c-2.765,0-5.355-1.31-7.021-3.629c-1.997-2.784-2.19-6.366-0.504-9.348
						l14.369-25.41c1.495-2.644,4.852-3.574,7.494-2.08c2.645,1.495,3.576,4.851,2.08,7.495l-11.916,21.072l22.172-4.239
						c2.996-0.566,5.865,1.387,6.435,4.37c0.57,2.983-1.386,5.865-4.369,6.435l-27.066,5.174
						C351.685,124.512,351.125,124.564,350.571,124.564z"/>
				</g>
				<g>
					<path style="fill:#004F82;" d="M422.653,176.404c-0.028,0-0.056,0-0.084-0.001c-3.037-0.045-5.463-2.544-5.417-5.582
						l0.045-2.999c0.217-14.501-4.024-28.472-12.266-40.403c-0.023-0.034-0.047-0.069-0.069-0.104l-5.297-8.053l-5.379,0.101
						c-3.013,0.045-5.545-2.359-5.602-5.396c-0.057-3.037,2.359-5.545,5.396-5.602l8.41-0.157c1.906-0.023,3.661,0.9,4.697,2.477
						l6.93,10.535c9.526,13.815,14.429,29.986,14.177,46.768l-0.045,2.999C428.105,173.996,425.652,176.404,422.653,176.404z"/>
				</g>
				<g>
					<path style="fill:#FFCBAD;" d="M420.394,168.193L420.394,168.193c1.14,0.759,1.451,2.312,0.693,3.452l-4.214,6.329
						c-0.759,1.14-2.312,1.451-3.452,0.693l0,0c-1.14-0.759-1.451-2.312-0.693-3.452l4.214-6.329
						C417.701,167.746,419.255,167.434,420.394,168.193z"/>
					<path style="fill:#FFCBAD;" d="M420.52,172.533L420.52,172.533c1.166,0.148,2,1.223,1.852,2.389l-1.656,13.088
						c-0.148,1.166-1.223,2-2.389,1.852l0,0c-1.166-0.148-2-1.223-1.852-2.389l1.656-13.088
						C418.278,173.218,419.353,172.385,420.52,172.533z"/>
					<path style="fill:#FFCBAD;" d="M426.745,174.326L426.745,174.326c1.146-0.262,2.298,0.461,2.561,1.607l2.944,12.86
						c0.262,1.146-0.461,2.298-1.607,2.561l0,0c-1.146,0.262-2.298-0.461-2.561-1.607l-2.944-12.86
						C424.876,175.74,425.599,174.588,426.745,174.326z"/>
					<path style="fill:#FFCBAD;" d="M428.087,170.268L428.087,170.268c1.067-0.494,2.344-0.025,2.838,1.042l5.54,11.973
						c0.494,1.067,0.025,2.344-1.042,2.838l0,0c-1.067,0.494-2.344,0.025-2.837-1.042l-5.54-11.973
						C426.551,172.038,427.02,170.761,428.087,170.268z"/>
					<path style="fill:#FFCBAD;" d="M423.742,173.493L423.742,173.493c1.176,0,2.138,0.962,2.137,2.138l-0.001,15.361
						c0,1.176-0.962,2.137-2.138,2.137l0,0c-1.176,0-2.137-0.962-2.137-2.138l0.001-15.361
						C421.605,174.455,422.567,173.493,423.742,173.493z"/>
					<path style="fill:#FFCBAD;" d="M429.846,167.777L429.846,167.777c2.83,3.322,2.427,8.356-0.895,11.186l0,0
						c-3.322,2.83-8.356,2.427-11.186-0.895l0,0c-2.83-3.322-2.427-8.356,0.895-11.186l0,0
						C421.983,164.053,427.016,164.455,429.846,167.777z"/>
				</g>
				<path style="fill:#0072BC;" d="M410.79,173.142c-2.76-5.589-5.141-14.43-4.832-20.793c0.56-11.505,4.031-14.232,4.832-19.039
					v-4.272c-0.9-6.363-6.142-15.29-8.505-19.058c-0.682-1.087-1.8-1.794-3.016-1.797c-0.007,0-0.014,0-0.021,0h-20.136
					c-0.007,0-0.014,0-0.021,0c-1.216,0.003-2.334,0.71-3.016,1.797c-2.363,3.768-7.605,12.695-8.505,19.058v4.272
					c0.801,4.807,4.272,7.534,4.832,19.039c0.31,6.364-2.071,15.204-4.832,20.794C367.572,173.143,384.667,188.071,410.79,173.142z"
					/>
				<path style="fill:#E3B59A;" d="M388.907,122.422c9.078,0,10.363-14.238,10.363-14.238c-0.007,0-0.014,0-0.021,0h-20.136
					c-0.007,0-0.014,0-0.021,0C379.092,108.184,379.828,122.422,388.907,122.422z"/>
				<path style="fill:#E3B59A;" d="M389.18,112.935L389.18,112.935c-4.358,0-7.924-1.479-7.924-5.837v-6.427
					c0-4.042,3.307-7.349,7.349-7.349h1.15c4.042,0,7.349,3.307,7.349,7.349v6.427C397.104,111.457,393.538,112.935,389.18,112.935z
					"/>
				<g>
					<path style="fill:#FFCBAD;" d="M366.894,88.301L366.894,88.301c-0.86-1.065-0.693-2.64,0.372-3.501l5.914-4.778
						c1.065-0.861,2.641-0.693,3.501,0.372l0,0c0.86,1.065,0.693,2.64-0.372,3.501l-5.914,4.778
						C369.33,89.533,367.754,89.366,366.894,88.301z"/>
					<path style="fill:#FFCBAD;" d="M362.765,92.826L362.765,92.826c-4.237-1.047-6.847-5.369-5.801-9.606v0
						c1.047-4.237,5.369-6.847,9.606-5.8l0,0c4.237,1.047,6.847,5.369,5.8,9.606l0,0C371.325,91.262,367.002,93.872,362.765,92.826z
						"/>
					<g>
						<path style="fill:#004F82;" d="M376.784,99.278h-11.714c-0.888,0-1.615-0.727-1.615-1.615V69.527
							c0-0.888,0.727-1.615,1.615-1.615h11.714c0.888,0,1.615,0.727,1.615,1.615v28.136
							C378.399,98.551,377.673,99.278,376.784,99.278z"/>
						<path style="fill:#0072BC;" d="M378.317,99.278h-11.714c-0.888,0-1.615-0.727-1.615-1.615V69.527
							c0-0.888,0.727-1.615,1.615-1.615h11.714c0.888,0,1.615,0.727,1.615,1.615v28.136
							C379.931,98.551,379.205,99.278,378.317,99.278z"/>
						<path style="fill:#D5EDFF;" d="M377.414,94.641h-9.909c-0.716,0-1.303-0.586-1.303-1.302V71.573
							c0-0.716,0.586-1.303,1.303-1.303h9.909c0.716,0,1.302,0.586,1.302,1.303v21.766
							C378.717,94.055,378.131,94.641,377.414,94.641z"/>
					</g>
					<path style="fill:#FFCBAD;" d="M367.405,79.144L367.405,79.144c-0.359,1.454-1.842,2.349-3.296,1.99l-2.611-0.645
						c-1.454-0.359-2.349-1.842-1.99-3.296l0,0c0.359-1.454,1.842-2.349,3.296-1.99l2.611,0.645
						C366.868,76.207,367.764,77.691,367.405,79.144z"/>
					<path style="fill:#FFCBAD;" d="M365.699,92.906L365.699,92.906c0,1.497-1.225,2.723-2.723,2.723h-2.689
						c-1.497,0-2.723-1.225-2.723-2.723l0,0c0-1.497,1.225-2.723,2.723-2.723h2.689C364.474,90.183,365.699,91.409,365.699,92.906z"
						/>
					<path style="fill:#FFCBAD;" d="M366.175,83.707L366.175,83.707c-0.359,1.454-1.842,2.349-3.296,1.99l-3.799-0.938
						c-1.454-0.359-2.349-1.842-1.99-3.296l0,0c0.359-1.454,1.842-2.349,3.296-1.99l3.799,0.938
						C365.638,80.77,366.534,82.253,366.175,83.707z"/>
					<path style="fill:#FFCBAD;" d="M365.694,88.524L365.694,88.524c-0.213,1.482-1.599,2.521-3.082,2.309l-3.873-0.556
						c-1.482-0.213-2.521-1.599-2.309-3.082l0,0c0.213-1.482,1.599-2.521,3.082-2.309l3.873,0.555
						C364.868,85.655,365.907,87.042,365.694,88.524z"/>
				</g>
				<g>
					<path style="fill:#E3B59A;" d="M371.746,86.323L371.746,86.323c-2.18-0.471-3.578-2.639-3.107-4.819l0.745-3.448
						c0.471-2.18,2.639-3.578,4.819-3.107l0,0c2.18,0.471,3.578,2.639,3.107,4.819l-0.744,3.448
						C376.095,85.395,373.926,86.794,371.746,86.323z"/>
					<path style="fill:#B8927C;" d="M372.213,84.163L372.213,84.163c-1.122-0.242-1.842-1.359-1.6-2.481l0.642-2.974
						c0.242-1.122,1.359-1.842,2.481-1.6l0,0c1.122,0.242,1.842,1.359,1.6,2.481l-0.642,2.974
						C374.451,83.686,373.335,84.406,372.213,84.163z"/>
					<path style="fill:#E3B59A;" d="M407.108,93.959L407.108,93.959c-2.18-0.471-3.578-2.639-3.107-4.819l0.745-3.448
						c0.471-2.18,2.639-3.578,4.819-3.107l0,0c2.18,0.471,3.578,2.639,3.107,4.819l-0.745,3.448
						C411.456,93.031,409.288,94.429,407.108,93.959z"/>
					<path style="fill:#B8927C;" d="M407.574,91.799L407.574,91.799c-1.122-0.242-1.842-1.359-1.6-2.481l0.642-2.974
						c0.242-1.122,1.359-1.842,2.481-1.6l0,0c1.122,0.242,1.842,1.359,1.6,2.481l-0.642,2.974
						C409.813,91.322,408.697,92.041,407.574,91.799z"/>
					<path style="fill:#FFCBAD;" d="M386.404,104.143L386.404,104.143c-9.724-2.1-15.963-11.774-13.863-21.499l2.135-9.89
						c2.1-9.724,11.774-15.963,21.499-13.863l0,0c9.724,2.1,15.963,11.774,13.863,21.499l-2.135,9.89
						C405.802,100.005,396.128,106.243,386.404,104.143z"/>
					<path style="fill:#A66897;" d="M408.243,56.948c-1.327,6.146-7.386,10.053-13.533,8.726
						c-6.147-1.327-10.053-7.386-8.726-13.533s7.386-10.053,13.533-8.726C405.663,44.743,409.57,50.802,408.243,56.948z"/>
					<path style="fill:none;stroke:#704666;stroke-linecap:round;stroke-linejoin:round;stroke-miterlimit:10;" d="M379.976,79.747
						l0.536-2.485c0.248-1.148,1.472-1.866,2.721-1.596l0,0c1.249,0.27,2.068,1.429,1.82,2.577l-0.537,2.485"/>
					<path style="fill:none;stroke:#704666;stroke-linecap:round;stroke-linejoin:round;stroke-miterlimit:10;" d="M397.783,83.593
						l0.537-2.485c0.248-1.147,1.472-1.866,2.721-1.596l0,0c1.249,0.27,2.068,1.429,1.82,2.577l-0.537,2.485"/>
					<path style="fill:#BA5050;" d="M395.414,92.129c0.6,0.13,0.96,0.82,0.725,1.457c-1.365,3.71-4.981,5.994-8.582,5.216
						c-3.601-0.778-5.953-4.35-5.665-8.293c0.049-0.677,0.662-1.158,1.262-1.028L395.414,92.129z"/>
					<path style="fill:#E36262;" d="M388.542,94.243c-1.96-0.423-3.923,0.066-5.526,1.193c0.996,1.689,2.581,2.944,4.542,3.367
						c1.96,0.423,3.923-0.066,5.526-1.193C392.087,95.921,390.502,94.666,388.542,94.243z"/>
					<path style="fill:#FFFFFF;" d="M395.414,92.129l-12.261-2.647c-0.6-0.13-1.213,0.351-1.262,1.028
						c-0.021,0.29-0.024,0.576-0.017,0.861c0.012,0.003,0.023,0.007,0.035,0.009l13.855,2.992c0.012,0.003,0.024,0.003,0.036,0.006
						c0.124-0.256,0.24-0.519,0.34-0.791C396.374,92.95,396.014,92.259,395.414,92.129z"/>
					<path style="fill:#E3B59A;" d="M390.058,87.222L390.058,87.222c-1.363-0.294-2.238-1.651-1.944-3.014l-0.347,1.606
						c-0.294,1.364,0.58,2.72,1.944,3.014h0c1.363,0.294,2.72-0.58,3.014-1.944l0.347-1.606
						C392.778,86.641,391.421,87.516,390.058,87.222z"/>
					<path style="fill:#BD77AC;" d="M377.867,72.156l2.149-4.918l-0.385,4.792c2.918-0.667,7.259-0.833,13.592,0.534
						c6.742,1.456,10.713,3.564,13.048,5.471l2.288-4.634l-1.212,5.611c1.982,1.999,2.217,3.573,2.217,3.573
						s8.354-21.524-12.868-26.106c-21.222-4.583-22.494,18.47-22.494,18.47L377.867,72.156z"/>
					<path style="fill:#BD77AC;" d="M378.65,62.207c0,0-10.126,10.764-7.154,33.128c0,0,1.752-16.317,6.37-23.179L378.65,62.207z"/>
					<path style="fill:#BD77AC;" d="M410.84,69.157c0,0,4.782,13.984-7.154,33.129c0,0,5.137-15.586,3.762-23.743L410.84,69.157z"/>
				</g>
			</g>
		</g>
	</g>
</g>
<g id="DESIGNED_BY_FREEPIK">
	<g>
		<g id="XMLID_319_">
			<g id="XMLID_338_">
				<path id="XMLID_346_" style="fill:#A5B7C6;" d="M260.104,470.394c-0.432,0.443-0.803,0.931-1.108,1.453l-0.465-0.241
					c-0.067-0.298-0.349-0.503-0.659-0.466c-0.331,0.039-0.568,0.339-0.529,0.67c0.039,0.331,0.339,0.568,0.67,0.529
					c0.066-0.008,0.127-0.026,0.184-0.052l0.451,0.234c-0.251,0.554-0.433,1.139-0.539,1.744l0.746,0.132
					c0.23-1.306,0.85-2.507,1.792-3.473L260.104,470.394z"/>
				<path id="XMLID_345_" style="fill:#A5B7C6;" d="M265.592,468.092c-0.171,0-0.341,0.006-0.51,0.017l-0.074-0.626
					c0.188-0.149,0.296-0.389,0.266-0.645c-0.046-0.393-0.402-0.674-0.795-0.628c-0.393,0.046-0.674,0.402-0.628,0.795
					c0.03,0.254,0.189,0.461,0.404,0.564l0.074,0.624c-0.714,0.116-1.403,0.332-2.06,0.646l0.327,0.684
					c0.934-0.447,1.942-0.673,2.995-0.673c0.496,0,0.993,0.053,1.475,0.158l0.161-0.741
					C266.692,468.151,266.142,468.092,265.592,468.092z"/>
				<path id="XMLID_344_" style="fill:#A5B7C6;" d="M272.194,470.639c0.331-0.04,0.566-0.341,0.526-0.672
					c-0.04-0.331-0.341-0.566-0.672-0.526c-0.309,0.038-0.535,0.304-0.53,0.609l-0.416,0.363c-0.418-0.43-0.889-0.813-1.408-1.139
					l-0.404,0.641c1.134,0.715,2.021,1.726,2.563,2.925l0.69-0.313c-0.251-0.554-0.568-1.072-0.942-1.545l0.402-0.351
					C272.065,470.644,272.129,470.647,272.194,470.639z"/>
				<path id="XMLID_343_" style="fill:#A5B7C6;" d="M265.044,478.3c-0.386,0.023-0.775,0.035-1.157,0.035
					c-0.88,0-1.733-0.061-2.478-0.179c-0.39-0.062-0.846-0.155-1.27-0.292c1.046,1.861,3.069,3.125,5.388,3.125
					c2.855,0,5.262-1.916,5.95-4.504c-0.682,0.449-1.505,0.825-2.459,1.123C267.839,477.976,266.463,478.215,265.044,478.3z"/>
				<path id="XMLID_339_" style="fill:#A5B7C6;" d="M265.592,469.608c-3.352,0-6.08,2.666-6.08,5.944
					c0,0.426,0.046,0.849,0.137,1.261c0.673,0.483,2.706,0.89,5.348,0.731c2.879-0.173,5.297-0.957,6.672-2.159
					c-0.006-0.195-0.021-0.39-0.045-0.582C271.244,471.842,268.65,469.608,265.592,469.608z M263.432,476.123
					c-1.02,0-1.85-0.83-1.85-1.85c0-1.02,0.83-1.85,1.85-1.85c1.02,0,1.85,0.83,1.85,1.85
					C265.282,475.293,264.452,476.123,263.432,476.123z M268.17,475.215c-0.75,0-1.36-0.61-1.36-1.36c0-0.75,0.61-1.361,1.36-1.361
					c0.75,0,1.361,0.61,1.361,1.361C269.53,474.605,268.92,475.215,268.17,475.215z"/>
			</g>
			<path id="XMLID_336_" style="fill:#A5B7C6;" d="M281.595,471.475c-0.295-0.116-0.805-0.309-1.382-0.237
				c-0.551,0.068-0.844,0.34-0.844,1.007v0.866h2.228v1.717h-2.228v5.455h-1.932v-5.455h-1.34v-1.717h1.34v-0.888
				c0-1.68,0.896-2.783,2.568-2.783c0.643,0,1.157,0.122,1.59,0.308L281.595,471.475z"/>
			<path id="XMLID_334_" style="fill:#A5B7C6;" d="M286.298,474.807c-0.177-0.03-0.358-0.046-0.526-0.046
				c-0.895,0-1.51,0.548-1.51,1.613v3.908h-1.932v-7.172h1.873v0.785c0.451-0.674,1.14-0.977,2.021-0.977
				c0.414,0,0.848,0.128,1.094,0.337L286.298,474.807z"/>
			<path id="XMLID_331_" style="fill:#A5B7C6;" d="M293.965,476.685c0,0.222-0.015,0.489-0.037,0.651h-5.085
				c0.207,1.036,0.933,1.488,1.843,1.488c0.622,0,1.295-0.252,1.813-0.688l1.133,1.243c-0.814,0.748-1.85,1.088-3.057,1.088
				c-2.198,0-3.723-1.495-3.723-3.753c0-2.257,1.48-3.797,3.627-3.797C292.544,472.918,293.958,474.45,293.965,476.685z
				 M288.851,476.019h3.175c-0.177-0.918-0.733-1.436-1.562-1.436C289.554,474.583,289.021,475.131,288.851,476.019z"/>
			<path id="XMLID_328_" style="fill:#A5B7C6;" d="M301.618,476.685c0,0.222-0.015,0.489-0.037,0.651h-5.085
				c0.207,1.036,0.932,1.488,1.843,1.488c0.622,0,1.295-0.252,1.814-0.688l1.132,1.243c-0.814,0.748-1.85,1.088-3.057,1.088
				c-2.198,0-3.723-1.495-3.723-3.753c0-2.257,1.48-3.797,3.627-3.797C300.197,472.918,301.611,474.45,301.618,476.685z
				 M296.504,476.019h3.175c-0.178-0.918-0.733-1.436-1.562-1.436C297.207,474.583,296.674,475.131,296.504,476.019z"/>
			<path id="XMLID_325_" style="fill:#A5B7C6;" d="M309.964,476.693c0,2.154-1.495,3.775-3.471,3.775
				c-0.962,0-1.643-0.378-2.109-0.933v3.708h-1.924v-10.133h1.887v0.792c0.466-0.585,1.155-0.984,2.139-0.984
				C308.469,472.918,309.964,474.539,309.964,476.693z M304.287,476.693c0,1.132,0.747,1.976,1.843,1.976
				c1.14,0,1.85-0.881,1.85-1.976c0-1.095-0.711-1.976-1.85-1.976C305.035,474.717,304.287,475.56,304.287,476.693z"/>
			<path id="XMLID_322_" style="fill:#A5B7C6;" d="M313.067,470.764c0,0.696-0.54,1.229-1.236,1.229
				c-0.696,0-1.229-0.533-1.229-1.229c0-0.696,0.533-1.243,1.229-1.243C312.527,469.521,313.067,470.069,313.067,470.764z
				 M312.809,480.283h-1.932v-7.172h1.932V480.283z"/>
			<path id="XMLID_320_" style="fill:#A5B7C6;" d="M316.032,475.664l2.702-2.554h2.368l-3.479,3.375l3.501,3.797h-2.376
				l-2.716-2.901v2.901H314.1v-10.658h1.932V475.664z"/>
		</g>
		<g>
			<path style="fill:#A5B7C6;" d="M184.412,480.217v-1.055c-0.527,0.718-1.391,1.23-2.387,1.23c-1.846,0-3.149-1.406-3.149-3.706
				c0-2.256,1.289-3.721,3.149-3.721c0.952,0,1.816,0.469,2.387,1.245v-3.765h1.099v9.77H184.412z M184.412,478.299v-3.208
				c-0.395-0.615-1.245-1.143-2.124-1.143c-1.421,0-2.27,1.172-2.27,2.739c0,1.567,0.85,2.724,2.27,2.724
				C183.168,479.412,184.017,478.914,184.412,478.299z"/>
			<path style="fill:#A5B7C6;" d="M186.932,476.673c0-2.051,1.465-3.706,3.486-3.706c2.139,0,3.398,1.67,3.398,3.794v0.279h-5.727
				c0.088,1.333,1.025,2.446,2.549,2.446c0.805,0,1.626-0.322,2.182-0.893l0.527,0.718c-0.703,0.703-1.655,1.084-2.812,1.084
				C188.44,480.393,186.932,478.885,186.932,476.673z M190.403,473.875c-1.509,0-2.256,1.274-2.314,2.358h4.643
				C192.718,475.179,192.015,473.875,190.403,473.875z"/>
			<path style="fill:#A5B7C6;" d="M194.607,479.28l0.571-0.791c0.469,0.542,1.362,1.011,2.329,1.011c1.084,0,1.67-0.513,1.67-1.216
				c0-1.714-4.38-0.659-4.38-3.281c0-1.098,0.952-2.036,2.636-2.036c1.201,0,2.051,0.454,2.622,1.026l-0.513,0.762
				c-0.424-0.513-1.201-0.894-2.109-0.894c-0.967,0-1.567,0.483-1.567,1.113c0,1.553,4.38,0.527,4.38,3.281
				c0,1.187-0.952,2.139-2.783,2.139C196.306,480.393,195.325,480.042,194.607,479.28z"/>
			<path style="fill:#A5B7C6;" d="M201.477,471.4c0-0.41,0.337-0.747,0.732-0.747c0.41,0,0.747,0.337,0.747,0.747
				c0,0.41-0.337,0.732-0.747,0.732C201.814,472.132,201.477,471.81,201.477,471.4z M201.667,480.217v-7.075h1.099v7.075H201.667z"
				/>
			<path style="fill:#A5B7C6;" d="M204.582,482.034l0.556-0.82c0.586,0.703,1.289,0.967,2.3,0.967c1.172,0,2.27-0.571,2.27-2.124
				v-1.011c-0.513,0.718-1.377,1.26-2.373,1.26c-1.845,0-3.149-1.377-3.149-3.662c0-2.27,1.289-3.677,3.149-3.677
				c0.952,0,1.802,0.469,2.373,1.245v-1.069h1.098v6.87c0,2.344-1.641,3.076-3.369,3.076
				C206.237,483.089,205.417,482.854,204.582,482.034z M209.709,478.182v-3.091c-0.381-0.615-1.23-1.143-2.109-1.143
				c-1.421,0-2.27,1.128-2.27,2.695c0,1.553,0.849,2.695,2.27,2.695C208.478,479.339,209.328,478.797,209.709,478.182z"/>
			<path style="fill:#A5B7C6;" d="M217.413,480.217v-4.629c0-1.245-0.63-1.641-1.582-1.641c-0.865,0-1.685,0.527-2.095,1.099v5.17
				h-1.099v-7.075h1.099v1.025c0.498-0.586,1.465-1.201,2.519-1.201c1.48,0,2.256,0.747,2.256,2.285v4.966H217.413z"/>
			<path style="fill:#A5B7C6;" d="M219.932,476.673c0-2.051,1.465-3.706,3.486-3.706c2.139,0,3.398,1.67,3.398,3.794v0.279h-5.727
				c0.088,1.333,1.025,2.446,2.549,2.446c0.806,0,1.626-0.322,2.183-0.893l0.527,0.718c-0.703,0.703-1.655,1.084-2.812,1.084
				C221.441,480.393,219.932,478.885,219.932,476.673z M223.404,473.875c-1.509,0-2.256,1.274-2.314,2.358h4.643
				C225.718,475.179,225.015,473.875,223.404,473.875z"/>
			<path style="fill:#A5B7C6;" d="M233.35,480.217v-1.055c-0.527,0.718-1.392,1.23-2.388,1.23c-1.846,0-3.149-1.406-3.149-3.706
				c0-2.256,1.289-3.721,3.149-3.721c0.952,0,1.817,0.469,2.388,1.245v-3.765h1.098v9.77H233.35z M233.35,478.299v-3.208
				c-0.396-0.615-1.245-1.143-2.124-1.143c-1.421,0-2.27,1.172-2.27,2.739c0,1.567,0.849,2.724,2.27,2.724
				C232.105,479.412,232.954,478.914,233.35,478.299z"/>
			<path style="fill:#A5B7C6;" d="M239.692,480.217v-9.77h1.098v3.765c0.572-0.776,1.421-1.245,2.388-1.245
				c1.845,0,3.149,1.465,3.149,3.721c0,2.299-1.304,3.706-3.149,3.706c-0.996,0-1.86-0.513-2.388-1.23v1.055H239.692z
				 M242.9,479.412c1.436,0,2.285-1.157,2.285-2.724c0-1.568-0.85-2.739-2.285-2.739c-0.864,0-1.728,0.527-2.109,1.143v3.208
				C241.171,478.914,242.036,479.412,242.9,479.412z"/>
			<path style="fill:#A5B7C6;" d="M247.528,481.99c0.161,0.073,0.425,0.117,0.601,0.117c0.483,0,0.805-0.161,1.055-0.747
				l0.469-1.069l-2.959-7.148h1.187l2.358,5.801l2.344-5.801h1.201l-3.545,8.51c-0.425,1.025-1.143,1.421-2.08,1.435
				c-0.234,0-0.601-0.044-0.806-0.103L247.528,481.99z"/>
		</g>
	</g>
</g>
</svg>
